<svg width="1372" height="817" viewBox="0 0 1372 817" fill="none" xmlns="http://www.w3.org/2000/svg">
<path d="M0 392C0 375.431 13.4315 362 30 362H582.75C599.319 362 612.75 348.569 612.75 332V30.0001C612.75 13.4315 626.181 6.23651e-05 642.75 6.0844e-05L1305.5 0H1342C1358.57 0 1372 13.4315 1372 30V47.0001V237V427V601C1372 617.569 1358.57 631 1342 631H1143C1126.43 631 1113 644.431 1113 661V787C1113 803.569 1099.57 817 1083 817H663.793C647.224 817 633.793 803.569 633.793 787V752C633.793 735.432 620.362 722 603.793 722H30C13.4315 722 0 708.569 0 692V392Z" fill="#E0E0E0"/>
</svg>
