<svg width="382" height="148" viewBox="0 0 382 148" fill="none" xmlns="http://www.w3.org/2000/svg">
<path d="M0 33.9824L0 9.44606C0 4.22915 4.22915 0 9.44606 0H361.061H372.554C377.771 0 382 4.22915 382 9.44607V14.7989V74.6239V54.4489V79.2361C382 84.453 377.771 88.6821 372.554 88.6821H359.895C354.678 88.6821 350.449 92.9113 350.449 98.1282V137.802C350.449 143.019 346.22 147.248 341.003 147.248H209.008C203.791 147.248 199.562 143.019 199.562 137.802V126.781C199.562 121.564 195.333 117.335 190.116 117.335H9.44607C4.22915 117.335 0 113.106 0 107.889L0 33.9824Z" fill="#E0E0E0"/>
</svg>
