<svg width="382" height="418" viewBox="0 0 382 418" fill="none" xmlns="http://www.w3.org/2000/svg">
<path d="M0 143.982V9.44608C0 4.22917 4.22915 2.00251e-05 9.44606 2.00251e-05H232.936L361.061 0H372.554C377.771 0 382 4.22915 382 9.44607V14.7989V74.6239V134.449V349.236C382 354.453 377.771 358.682 372.554 358.682H359.895C354.678 358.682 350.449 362.911 350.449 368.128V407.802C350.449 413.019 346.22 417.248 341.003 417.248H209.008C203.791 417.248 199.562 413.019 199.562 407.802V396.781C199.562 391.564 195.333 387.335 190.116 387.335H9.44607C4.22915 387.335 0 383.106 0 377.889V143.982Z" fill="#E0E0E0"/>
</svg>
