<svg width="1372" height="747" viewBox="0 0 1372 747" fill="none" xmlns="http://www.w3.org/2000/svg">
<path d="M0 30.0002C0 13.4316 13.4315 0.000125888 30 0.000124273L1282 2.28964e-06C1294.98 1.02511e-06 1305.5 10.5213 1305.5 23.5001C1305.5 36.4788 1316.02 47.0001 1329 47.0001H1342C1358.57 47.0001 1372 60.4316 1372 77.0001V207C1372 223.569 1358.57 237 1342 237H1192.5C1175.93 237 1162.5 250.432 1162.5 267V397C1162.5 413.569 1175.93 427 1192.5 427H1342C1358.57 427 1372 440.432 1372 457V601C1372 617.569 1358.57 631 1342 631H1143C1126.43 631 1113 644.431 1113 661V717C1113 733.569 1099.57 747 1083 747H663.793C647.224 747 633.793 733.569 633.793 717V462C633.793 445.432 620.362 432 603.793 432H30C13.4315 432 0 418.569 0 402V237V109V30.0002Z" fill="#D9D9D9"/>
</svg>
